<svg version="1.1" id="Layer_1" xmlns="http://www.w3.org/2000/svg" xmlns:xlink="http://www.w3.org/1999/xlink" x="0px" y="0px"
	 width="100%" viewBox="0 0 236 236" enable-background="new 0 0 236 236" xml:space="preserve">
<path fill="#2B2B2B" opacity="1.000000" stroke="none" 
	d="
M132.000000,237.000000 
	C88.000000,237.000000 44.500004,237.000000 1.000006,237.000000 
	C1.000004,158.333344 1.000004,79.666679 1.000002,1.000016 
	C79.666656,1.000011 158.333313,1.000011 236.999969,1.000005 
	C236.999985,79.666649 236.999985,158.333298 237.000000,236.999969 
	C202.166672,237.000000 167.333328,237.000000 132.000000,237.000000 
M47.197872,182.302505 
	C63.454998,198.217178 82.464546,208.433914 105.727043,211.188309 
	C105.874695,209.004028 106.055618,207.546143 106.058731,206.087860 
	C106.082611,194.922150 105.907616,183.752579 106.164047,172.592697 
	C106.249878,168.857269 104.831024,167.422043 101.460808,166.314697 
	C77.790367,158.537338 63.965866,140.597275 62.197018,115.733498 
	C59.655617,80.010292 95.420830,50.167152 130.124741,58.945263 
	C150.683472,64.145447 164.383835,76.646629 170.961716,96.792679 
	C172.033585,100.075493 173.389404,101.674873 177.200867,101.585602 
	C188.693634,101.316422 200.197372,101.421867 211.695419,101.530037 
	C215.023056,101.561333 215.980743,100.641258 215.357880,97.121307 
	C210.527695,69.824913 196.978867,47.796345 174.137314,32.377617 
	C140.633255,9.761382 105.344559,8.401826 69.686203,27.233225 
	C35.502712,45.285732 15.098416,85.754761 19.720070,123.965881 
	C22.418758,146.278229 31.516893,165.402084 47.197872,182.302505 
M213.317566,138.850952 
	C214.200150,134.679810 215.082748,130.508667 215.905319,126.621117 
	C215.006943,126.021072 214.735260,125.681206 214.461395,125.679436 
	C201.306076,125.593849 188.149399,125.448639 174.997086,125.625710 
	C173.783813,125.642044 171.942871,127.519966 171.498947,128.891342 
	C165.302856,148.032211 152.689606,160.668716 133.543777,166.720688 
	C130.851471,167.571732 129.956024,168.908356 129.990936,171.712082 
	C130.138245,183.537994 130.036682,195.366837 130.081528,207.194412 
	C130.086197,208.423309 130.457993,209.650803 130.652451,210.836349 
	C164.036407,208.213776 202.036591,181.306442 213.317566,138.850952 
z"/>
<path fill="#FCFCFC" opacity="1.000000" stroke="none" 
	d="
M46.961220,182.036804 
	C31.516893,165.402084 22.418758,146.278229 19.720070,123.965881 
	C15.098416,85.754761 35.502712,45.285732 69.686203,27.233225 
	C105.344559,8.401826 140.633255,9.761382 174.137314,32.377617 
	C196.978867,47.796345 210.527695,69.824913 215.357880,97.121307 
	C215.980743,100.641258 215.023056,101.561333 211.695419,101.530037 
	C200.197372,101.421867 188.693634,101.316422 177.200867,101.585602 
	C173.389404,101.674873 172.033585,100.075493 170.961716,96.792679 
	C164.383835,76.646629 150.683472,64.145447 130.124741,58.945263 
	C95.420830,50.167152 59.655617,80.010292 62.197018,115.733498 
	C63.965866,140.597275 77.790367,158.537338 101.460808,166.314697 
	C104.831024,167.422043 106.249878,168.857269 106.164047,172.592697 
	C105.907616,183.752579 106.082611,194.922150 106.058731,206.087860 
	C106.055618,207.546143 105.874695,209.004028 105.727043,211.188309 
	C82.464546,208.433914 63.454998,198.217178 46.961220,182.036804 
z"/>
<path fill="#FAFAFA" opacity="1.000000" stroke="none" 
	d="
M213.212372,139.241592 
	C202.036591,181.306442 164.036407,208.213776 130.652451,210.836349 
	C130.457993,209.650803 130.086197,208.423309 130.081528,207.194412 
	C130.036682,195.366837 130.138245,183.537994 129.990936,171.712082 
	C129.956024,168.908356 130.851471,167.571732 133.543777,166.720688 
	C152.689606,160.668716 165.302856,148.032211 171.498947,128.891342 
	C171.942871,127.519966 173.783813,125.642044 174.997086,125.625710 
	C188.149399,125.448639 201.306076,125.593849 214.461395,125.679436 
	C214.735260,125.681206 215.006943,126.021072 215.905319,126.621117 
	C215.082748,130.508667 214.200150,134.679810 213.212372,139.241592 
z"/>
</svg>